<svg width="16" height="11" viewBox="0 0 16 11" fill="none" xmlns="http://www.w3.org/2000/svg">
<path d="M6.60321 3.24991L4.66952 1.363C4.0097 0.719141 3.67979 0.397212 3.27273 0.397212C2.86567 0.397212 2.53576 0.719141 1.87594 1.363L1.46691 1.76213C0.776872 2.43547 0.431852 2.77215 0.431852 3.19355C0.431852 3.61495 0.776873 3.95163 1.46691 4.62497L6.60321 9.637C7.26303 10.2809 7.59294 10.6028 8 10.6028C8.40706 10.6028 8.73697 10.2809 9.39679 9.637L14.5331 4.62497C15.2231 3.95163 15.5681 3.61495 15.5681 3.19355C15.5681 2.77214 15.2231 2.43547 14.5331 1.76213L14.1241 1.363C13.4642 0.71914 13.1343 0.397211 12.7273 0.397211C12.3202 0.397211 11.9903 0.71914 11.3305 1.363L9.39679 3.24991C8.73697 3.89376 8.40706 4.21569 8 4.21569C7.59294 4.21569 7.26303 3.89376 6.60321 3.24991Z" fill="white"/>
</svg>
