<svg width="18" height="20" viewBox="0 0 18 20" fill="none" xmlns="http://www.w3.org/2000/svg">
<path d="M8.75 0C4.6079 0 1.25004 3.35786 1.25004 7.5V11.9822L0.36615 12.8661C0.00865051 13.2236 -0.098287 13.7612 0.095188 14.2284C0.288663 14.6955 0.744463 15 1.25004 15H16.25C16.7556 15 17.2114 14.6955 17.4049 14.2284C17.5984 13.7612 17.4914 13.2236 17.1339 12.8661L16.25 11.9822V7.5C16.25 3.35786 12.8921 0 8.75 0Z" fill="#FA4A0C"/>
<path d="M8.75 20C6.67894 20 5 18.3211 5 16.25H12.5C12.5 18.3211 10.8211 20 8.75 20Z" fill="#FA4A0C"/>
</svg>
