<svg width="13" height="16" viewBox="0 0 13 16" fill="#fff" xmlns="http://www.w3.org/2000/svg">
<path opacity="0.603585" d="M13 13.8667H11.814V1.26061H1.73334V0H12.407C12.7343 0 13 0.282376 13 0.630303V13.8667Z" fill="#fff"/>
<path fill-rule="evenodd" clip-rule="evenodd" d="M0.625926 3.46667H10.6407C10.9863 3.46667 11.2667 3.73846 11.2667 4.07334V14.9933C11.2667 15.3282 10.9863 15.6 10.6407 15.6H0.625926C0.280415 15.6 0 15.3282 0 14.9933V4.07334C0 3.73846 0.280415 3.46667 0.625926 3.46667ZM2.5037 12.5667H6.25926V11.3533H2.5037V12.5667ZM8.76296 10.14H2.5037V8.92667H8.76296V10.14ZM2.5037 7.71334H8.76296V6.50001H2.5037V7.71334Z" fill="#fff"/>
<defs>
<linearGradient id="paint0_linear" x1="7.36667" y1="0" x2="7.36667" y2="13.8667" gradientUnits="userSpaceOnUse">
<stop stop-color="#FA4A0C"/>
<stop offset="1" stop-color="#FA4A0C" stop-opacity="0.38"/>
</linearGradient>
<linearGradient id="paint1_linear" x1="5.63333" y1="3.46667" x2="5.63333" y2="15.6" gradientUnits="userSpaceOnUse">
<stop stop-color="#FA4A0C"/>
<stop offset="1" stop-color="#FA4A0C" stop-opacity="0.38"/>
</linearGradient>
</defs>
</svg>
