<svg width="24" height="24" viewBox="0 0 24 24" fill="none" xmlns="http://www.w3.org/2000/svg">
<path fill-rule="evenodd" clip-rule="evenodd" d="M19 19C19 19.4714 19 19.7071 18.8536 19.8536C18.7071 20 18.4714 20 18 20H6C5.5286 20 5.29289 20 5.14645 19.8536C5 19.7071 5 19.4714 5 19V18.2222C5 16.6373 5.69549 15.3027 6.72157 14.2726C7.64999 13.3406 8.11421 12.8746 8.18573 12.6302C8.25726 12.3857 8.08773 11.6064 7.74867 10.0478C7.66784 9.67633 7.625 9.2882 7.625 8.88889C7.625 6.18883 9.58375 4 12 4C14.4162 4 16.375 6.18883 16.375 8.88889C16.375 9.28733 16.3323 9.67463 16.2519 10.0454C15.9136 11.6039 15.7444 12.3831 15.8159 12.6274C15.8875 12.8717 16.3519 13.3381 17.2808 14.271C18.306 15.3005 19 16.6351 19 18.2222V19Z" fill="#BFBFBF"/>
</svg>
