<svg width="16" height="12" viewBox="0 0 16 12" fill="none" xmlns="http://www.w3.org/2000/svg">
<path d="M8.50779 8.38716C7.71884 8.08907 6.44098 7.73334 4.83334 7.73334C3.2257 7.73334 1.94784 8.08907 1.15851 8.38716C0.455077 8.65396 0 9.29336 0 10.0161V11.2485C0 11.4429 0.166192 11.6 0.371795 11.6H9.29488C9.50048 11.6 9.66668 11.4429 9.66668 11.2485V10.0161C9.66668 9.29336 9.2116 8.65396 8.50779 8.38716Z" fill="url(#paint0_linear)"/>
<path d="M4.83335 6.76667C6.43995 6.76667 7.73336 4.70998 7.73336 3.00741C7.73336 1.3492 6.43234 0 4.83335 0C3.23436 0 1.93335 1.3492 1.93335 3.00741C1.93335 4.70998 3.22675 6.76667 4.83335 6.76667Z" fill="url(#paint1_linear)"/>
<path fill-rule="evenodd" clip-rule="evenodd" d="M12.6832 2.40498C12.5305 1.77614 11.6362 1.77614 11.4835 2.40498C11.3849 2.8112 10.9195 3.00398 10.5625 2.78647C10.0099 2.44976 9.37755 3.08214 9.71426 3.63475C9.93177 3.99173 9.739 4.45713 9.33277 4.55575C8.70394 4.70841 8.70394 5.60274 9.33277 5.75539C9.739 5.85403 9.93177 6.31944 9.71426 6.67639C9.37755 7.229 10.0099 7.8614 10.5625 7.52468C10.9195 7.30718 11.3849 7.49995 11.4835 7.90619C11.6362 8.53501 12.5305 8.53501 12.6832 7.90619C12.7818 7.49995 13.2472 7.30718 13.6042 7.52468C14.1568 7.8614 14.7892 7.229 14.4525 6.67639C14.235 6.31944 14.4277 5.85403 14.834 5.75539C15.4628 5.60274 15.4628 4.70841 14.834 4.55575C14.4277 4.45713 14.235 3.99173 14.4525 3.63475C14.7892 3.08214 14.1568 2.44976 13.6042 2.78647C13.2472 3.00398 12.7818 2.8112 12.6832 2.40498ZM12.0834 6.36392C12.7508 6.36392 13.2917 5.82295 13.2917 5.15559C13.2917 4.48824 12.7508 3.94725 12.0834 3.94725C11.416 3.94725 10.8751 4.48824 10.8751 5.15559C10.8751 5.82295 11.416 6.36392 12.0834 6.36392Z" fill="url(#paint2_linear)"/>
<defs>
<linearGradient id="paint0_linear" x1="4.83334" y1="7.73334" x2="4.83334" y2="11.6" gradientUnits="userSpaceOnUse">
<stop stop-color="#FF4200" stop-opacity="0.935696"/>
<stop offset="0.951042" stop-color="#FA4A0C" stop-opacity="0.57"/>
</linearGradient>
<linearGradient id="paint1_linear" x1="4.83335" y1="0" x2="4.83335" y2="6.76667" gradientUnits="userSpaceOnUse">
<stop stop-color="#FF4200" stop-opacity="0.935696"/>
<stop offset="0.951042" stop-color="#FA4A0C" stop-opacity="0.57"/>
</linearGradient>
<linearGradient id="paint2_linear" x1="12.0834" y1="1.93335" x2="12.0834" y2="8.3778" gradientUnits="userSpaceOnUse">
<stop stop-color="#FF4200" stop-opacity="0.935696"/>
<stop offset="0.951042" stop-color="#FA4A0C" stop-opacity="0.57"/>
</linearGradient>
</defs>
</svg>
