<svg width="18" height="18" viewBox="0 0 18 18" fill="#fff" xmlns="http://www.w3.org/2000/svg">
<path d="M7.5675 11.6925L8.625 12.75L12.375 9L8.625 5.25L7.5675 6.3075L9.5025 8.25H2.25V9.75H9.5025L7.5675 11.6925ZM14.25 2.25H3.75C2.9175 2.25 2.25 2.925 2.25 3.75V6.75H3.75V3.75H14.25V14.25H3.75V11.25H2.25V14.25C2.25 15.075 2.9175 15.75 3.75 15.75H14.25C15.075 15.75 15.75 15.075 15.75 14.25V3.75C15.75 2.925 15.075 2.25 14.25 2.25Z" fill="#fff"/>
<defs>
<linearGradient id="paint0_linear" x1="9" y1="2.25" x2="9" y2="15.75" gradientUnits="userSpaceOnUse">
<stop stop-color="#FA4A0C"/>
<stop offset="1" stop-color="#FA4A0C" stop-opacity="0.3"/>
</linearGradient>
</defs>
</svg>
