<svg width="18" height="18" viewBox="0 0 18 18" fill="none" xmlns="http://www.w3.org/2000/svg">
<path d="M9 3.2655C9.40308 2.80853 9.93576 2.48513 10.5272 2.33835C11.1186 2.19156 11.7406 2.22834 12.3106 2.4438C12.8806 2.65926 13.3714 3.04318 13.7179 3.54447C14.0643 4.04576 14.2498 4.64066 14.2498 5.25C14.2498 5.85934 14.0643 6.45424 13.7179 6.95553C13.3714 7.45682 12.8806 7.84074 12.3106 8.0562C11.7406 8.27166 11.1186 8.30844 10.5272 8.16166C9.93576 8.01487 9.40308 7.69147 9 7.2345V3.2655ZM11.25 15.75H2.25V15C2.25 13.8065 2.72411 12.6619 3.56802 11.818C4.41193 10.9741 5.55653 10.5 6.75 10.5C7.94347 10.5 9.08807 10.9741 9.93198 11.818C10.7759 12.6619 11.25 13.8065 11.25 15V15.75ZM11.25 15.75H15.75V15C15.7501 14.21 15.5423 13.434 15.1474 12.7498C14.7524 12.0656 14.1844 11.4974 13.5003 11.1024C12.8162 10.7074 12.0401 10.4994 11.2502 10.4994C10.4602 10.4993 9.68413 10.7073 9 11.1023L11.25 15.75ZM9.75 5.25C9.75 6.04565 9.43393 6.80871 8.87132 7.37132C8.30871 7.93393 7.54565 8.25 6.75 8.25C5.95435 8.25 5.19129 7.93393 4.62868 7.37132C4.06607 6.80871 3.75 6.04565 3.75 5.25C3.75 4.45435 4.06607 3.69129 4.62868 3.12868C5.19129 2.56607 5.95435 2.25 6.75 2.25C7.54565 2.25 8.30871 2.56607 8.87132 3.12868C9.43393 3.69129 9.75 4.45435 9.75 5.25Z" fill="white"/>
</svg>
